<?xml version="1.0" encoding="UTF-8"?><svg id="_レイヤー_1" xmlns="http://www.w3.org/2000/svg" viewBox="0 0 274.12 135.36"><defs><style>.cls-1{fill:#3b82f6;}.cls-2{isolation:isolate;}</style></defs><path class="cls-1" d="m0,93.13s29.5,28.21,56.45,36.08c8.22-44.69,81.68-93.06,123.08-88.31,0,0-7.9-23.24-37.46-40.9,0,0-70.91,24.05-94.2,96.18,0,0-28.75-18.38-32.19-26.17C15.67,70.02,9.48,85.38,0,93.13h0Z"/><g class="cls-2"><g class="cls-2"><path d="m96.55,54.68v14.48h-11.62v57.88h-19.58v-57.88h-11.58v-14.48h42.78Z"/><path d="m113.24,90.71h-17.62v-3.98c0-4.59.55-8.13,1.65-10.61,1.1-2.49,3.31-4.69,6.63-6.59,3.32-1.91,7.63-2.86,12.93-2.86,6.35,0,11.14,1.08,14.37,3.24,3.22,2.16,5.16,4.81,5.81,7.96.65,3.14.98,9.62.98,19.42v29.77h-18.27v-5.29c-1.15,2.12-2.63,3.71-4.44,4.77s-3.98,1.59-6.49,1.59c-3.29,0-6.3-.89-9.04-2.66-2.74-1.77-4.12-5.65-4.12-11.64v-4.87c0-4.44.73-7.46,2.19-9.07,1.46-1.61,5.07-3.49,10.83-5.63,6.17-2.32,9.47-3.89,9.9-4.69.43-.8.65-2.44.65-4.92,0-3.1-.24-5.12-.72-6.06-.48-.94-1.28-1.41-2.39-1.41-1.27,0-2.06.4-2.37,1.18-.31.79-.46,2.84-.46,6.15v6.21Zm5.95,8.13c-3.01,2.12-4.75,3.89-5.23,5.32-.48,1.43-.72,3.49-.72,6.17,0,3.07.21,5.05.63,5.94s1.25,1.34,2.49,1.34,1.94-.35,2.3-1.05c.36-.7.53-2.54.53-5.52v-12.2Z"/><path d="m182.81,86.69h-16.65v-3.22c0-2.74-.16-4.48-.49-5.21-.33-.73-1.14-1.09-2.44-1.09-1.05,0-1.84.33-2.37,1.01-.53.67-.79,1.68-.79,3.02,0,1.82.13,3.15.4,4,.26.85,1.05,1.78,2.37,2.79,1.32,1.01,4.02,2.49,8.11,4.42,5.46,2.56,9.04,4.98,10.74,7.24,1.7,2.26,2.56,5.56,2.56,9.88,0,4.83-.65,8.47-1.95,10.93s-3.48,4.35-6.53,5.68c-3.05,1.33-6.74,1.99-11.04,1.99-4.77,0-8.86-.71-12.25-2.14-3.39-1.43-5.73-3.37-7-5.81-1.27-2.44-1.91-6.14-1.91-11.08v-2.86h16.65v3.75c0,3.19.21,5.26.63,6.21.42.95,1.25,1.43,2.49,1.43,1.33,0,2.26-.32,2.79-.96.53-.64.79-1.99.79-4.04,0-2.83-.34-4.6-1.02-5.32-.71-.72-4.36-2.83-10.93-6.35-5.52-2.98-8.88-5.68-10.09-8.11s-1.81-5.31-1.81-8.65c0-4.74.65-8.23,1.95-10.48,1.3-2.25,3.51-3.98,6.63-5.21,3.12-1.22,6.73-1.83,10.86-1.83s7.57.5,10.44,1.5c2.87,1,5.07,2.32,6.6,3.96,1.53,1.64,2.46,3.16,2.79,4.56s.49,3.59.49,6.57v3.44Z"/><path d="m229.72,67.74l-7.62,23.62,9.9,35.69h-18.07l-5.86-25.85-.02,25.85h-18.79V54.68h18.79l.02,30.38,5.86-17.33h15.79Z"/><path d="m274.12,67.74l-5.37,42.91c-.85,6.79-1.56,11.43-2.13,13.9-.57,2.47-1.53,4.51-2.86,6.12-1.33,1.61-3.18,2.79-5.56,3.55-2.37.76-6.16,1.14-11.37,1.14h-11.39v-9.48c2.92,0,4.8-.14,5.64-.42.84-.28,1.26-.92,1.26-1.9,0-.48-.39-2.55-1.16-6.21l-10.29-49.61h17.05l6.17,40.05,3.01-40.05h17Z"/></g></g></svg>